<svg width="24" height="24" viewBox="0 0 24 24" fill="none" xmlns="http://www.w3.org/2000/svg">
<path d="M12 5.14284L10.7743 6.33684L15.5571 11.1428H5.14285V12.8571H15.5571L10.7743 17.634L12 18.8571L18.8571 12L12 5.14284Z" fill="#87A0E2"/>
<path d="M12 24C9.62663 24 7.30655 23.2962 5.33316 21.9776C3.35977 20.6591 1.8217 18.7849 0.913451 16.5922C0.0051994 14.3995 -0.232441 11.9867 0.230582 9.65892C0.693605 7.33115 1.83649 5.19295 3.51472 3.51472C5.19295 1.83649 7.33115 0.693605 9.65892 0.230582C11.9867 -0.232441 14.3995 0.0051994 16.5922 0.913451C18.7849 1.8217 20.6591 3.35977 21.9776 5.33316C23.2962 7.30655 24 9.62663 24 12C23.9964 15.1815 22.7309 18.2316 20.4813 20.4813C18.2316 22.7309 15.1815 23.9964 12 24ZM12 1.71429C9.96568 1.71429 7.97704 2.31754 6.28557 3.44775C4.59409 4.57795 3.27575 6.18436 2.49724 8.06383C1.71874 9.9433 1.51505 12.0114 1.91193 14.0066C2.3088 16.0019 3.28842 17.8346 4.72691 19.2731C6.16539 20.7116 7.99813 21.6912 9.99336 22.0881C11.9886 22.485 14.0567 22.2813 15.9362 21.5028C17.8156 20.7243 19.4221 19.4059 20.5523 17.7144C21.6825 16.023 22.2857 14.0343 22.2857 12C22.2825 9.27304 21.1978 6.65867 19.2696 4.73041C17.3413 2.80216 14.727 1.71747 12 1.71429Z" fill="#87A0E2"/>
</svg>
