<svg width="24" height="24" viewBox="0 0 24 24" fill="none" xmlns="http://www.w3.org/2000/svg">
<path d="M12 18.8572L13.2257 17.6632L8.44286 12.8572H18.8571V11.1429H8.44286L13.2257 6.36602L12 5.14288L5.14286 12L12 18.8572Z" fill="#87A0E2"/>
<path d="M12 0C14.3734 0 16.6934 0.703787 18.6668 2.02236C20.6402 3.34094 22.1783 5.21508 23.0865 7.4078C23.9948 9.60051 24.2324 12.0133 23.7694 14.3411C23.3064 16.6689 22.1635 18.807 20.4853 20.4853C18.807 22.1635 16.6689 23.3064 14.3411 23.7694C12.0133 24.2324 9.60051 23.9948 7.4078 23.0865C5.21508 22.1783 3.34094 20.6402 2.02236 18.6668C0.703787 16.6934 0 14.3734 0 12C0.00362968 8.81851 1.26908 5.76838 3.51873 3.51873C5.76838 1.26908 8.81851 0.00362968 12 0ZM12 22.2857C14.0343 22.2857 16.023 21.6825 17.7144 20.5523C19.4059 19.422 20.7243 17.8156 21.5028 15.9362C22.2813 14.0567 22.4849 11.9886 22.0881 9.99335C21.6912 7.99812 20.7116 6.16538 19.2731 4.7269C17.8346 3.28842 16.0019 2.3088 14.0066 1.91192C12.0114 1.51505 9.94329 1.71874 8.06383 2.49724C6.18436 3.27574 4.57795 4.59408 3.44774 6.28556C2.31753 7.97704 1.71428 9.96567 1.71428 12C1.71746 14.727 2.80215 17.3413 4.73041 19.2696C6.65866 21.1978 9.27303 22.2825 12 22.2857Z" fill="#87A0E2"/>
</svg>
