<svg width="48" height="48" viewBox="0 0 48 48" fill="none" xmlns="http://www.w3.org/2000/svg">
<circle cx="24" cy="24" r="24" fill="white"/>
<path d="M31.9196 18.3431L26.2627 24L31.9196 29.6569C32.2197 29.9569 32.3882 30.3639 32.3882 30.7882C32.3882 31.2126 32.2197 31.6195 31.9196 31.9196C31.6195 32.2197 31.2126 32.3882 30.7882 32.3882C30.3639 32.3882 29.9569 32.2197 29.6569 31.9196L24 26.2627L18.3431 31.9196C18.0431 32.2197 17.6361 32.3882 17.2118 32.3882C16.7874 32.3882 16.3805 32.2197 16.0804 31.9196C15.7803 31.6195 15.6118 31.2126 15.6118 30.7882C15.6118 30.3639 15.7803 29.9569 16.0804 29.6569L21.7373 24L16.0804 18.3431C15.7804 18.0431 15.6118 17.6361 15.6118 17.2118C15.6118 16.7874 15.7804 16.3805 16.0804 16.0804C16.3805 15.7803 16.7874 15.6118 17.2118 15.6118C17.6361 15.6118 18.0431 15.7803 18.3431 16.0804L24 21.7373L29.6569 16.0804C29.9569 15.7803 30.3639 15.6118 30.7882 15.6118C31.2126 15.6118 31.6195 15.7803 31.9196 16.0804C32.2197 16.3805 32.3882 16.7874 32.3882 17.2118C32.3882 17.6361 32.2197 18.0431 31.9196 18.3431Z" fill="#87A0E2"/>
</svg>
