<svg width="48" height="48" viewBox="0 0 48 48" fill="none" xmlns="http://www.w3.org/2000/svg">
<circle cx="24" cy="24" r="24" fill="white"/>
<path d="M33.6 25.6H25.6V33.6C25.6 34.0243 25.4314 34.4313 25.1314 34.7314C24.8313 35.0314 24.4243 35.2 24 35.2C23.5757 35.2 23.1687 35.0314 22.8686 34.7314C22.5686 34.4313 22.4 34.0243 22.4 33.6V25.6H14.4C13.9757 25.6 13.5687 25.4314 13.2686 25.1314C12.9686 24.8313 12.8 24.4243 12.8 24C12.8 23.5756 12.9686 23.1687 13.2686 22.8686C13.5687 22.5686 13.9757 22.4 14.4 22.4H22.4V14.4C22.4 13.9756 22.5686 13.5687 22.8686 13.2686C23.1687 12.9686 23.5757 12.8 24 12.8C24.4243 12.8 24.8313 12.9686 25.1314 13.2686C25.4314 13.5687 25.6 13.9756 25.6 14.4V22.4H33.6C34.0243 22.4 34.4313 22.5686 34.7314 22.8686C35.0314 23.1687 35.2 23.5756 35.2 24C35.2 24.4243 35.0314 24.8313 34.7314 25.1314C34.4313 25.4314 34.0243 25.6 33.6 25.6Z" fill="#87A0E2"/>
</svg>
