<svg width="24" height="24" viewBox="0 0 24 24" fill="none" xmlns="http://www.w3.org/2000/svg">
<path d="M23 3.42857H17V2.14286C17 1.57454 16.7366 1.02949 16.2678 0.627628C15.7989 0.225765 15.163 0 14.5 0H9.5C8.83696 0 8.20107 0.225765 7.73223 0.627628C7.26339 1.02949 7 1.57454 7 2.14286V3.42857H1C0.734784 3.42857 0.48043 3.51888 0.292893 3.67962C0.105357 3.84037 0 4.05839 0 4.28571C0 4.51304 0.105357 4.73106 0.292893 4.89181C0.48043 5.05255 0.734784 5.14286 1 5.14286H2.0625L3.25 21.4779C3.33875 22.9163 4.625 24 6.25 24H17.75C19.3831 24 20.6437 22.9404 20.75 21.4821L21.9375 5.14286H23C23.2652 5.14286 23.5196 5.05255 23.7071 4.89181C23.8946 4.73106 24 4.51304 24 4.28571C24 4.05839 23.8946 3.84037 23.7071 3.67962C23.5196 3.51888 23.2652 3.42857 23 3.42857ZM8.03563 20.5714H8C7.74084 20.5716 7.49174 20.4855 7.3052 20.3313C7.11865 20.1771 7.00923 19.9668 7 19.7448L6.5 7.74482C6.49055 7.51749 6.58685 7.29626 6.7677 7.12979C6.94856 6.96331 7.19916 6.86524 7.46437 6.85714C7.72959 6.84904 7.9877 6.93158 8.18192 7.0866C8.37613 7.24162 8.49055 7.45642 8.5 7.68375L9 19.6837C9.00476 19.7963 8.98359 19.9086 8.93769 20.0142C8.89178 20.1197 8.82206 20.2165 8.73249 20.2989C8.64292 20.3814 8.53527 20.4479 8.4157 20.4946C8.29613 20.5414 8.16697 20.5675 8.03563 20.5714ZM13 19.7143C13 19.9416 12.8946 20.1596 12.7071 20.3204C12.5196 20.4811 12.2652 20.5714 12 20.5714C11.7348 20.5714 11.4804 20.4811 11.2929 20.3204C11.1054 20.1596 11 19.9416 11 19.7143V7.71429C11 7.48696 11.1054 7.26894 11.2929 7.10819C11.4804 6.94745 11.7348 6.85714 12 6.85714C12.2652 6.85714 12.5196 6.94745 12.7071 7.10819C12.8946 7.26894 13 7.48696 13 7.71429V19.7143ZM15 3.42857H9V2.14286C8.99925 2.0864 9.01166 2.03038 9.03652 1.97809C9.06139 1.9258 9.09819 1.8783 9.14477 1.83837C9.19135 1.79845 9.24677 1.7669 9.30777 1.74559C9.36877 1.72428 9.43413 1.71364 9.5 1.71429H14.5C14.5659 1.71364 14.6312 1.72428 14.6922 1.74559C14.7532 1.7669 14.8087 1.79845 14.8552 1.83837C14.9018 1.8783 14.9386 1.9258 14.9635 1.97809C14.9883 2.03038 15.0008 2.0864 15 2.14286V3.42857ZM17 19.7448C16.9908 19.9668 16.8813 20.1771 16.6948 20.3313C16.5083 20.4855 16.2592 20.5716 16 20.5714H15.9638C15.8325 20.5674 15.7034 20.5413 15.5839 20.4945C15.4644 20.4477 15.3568 20.3812 15.2673 20.2988C15.1778 20.2163 15.1081 20.1196 15.0623 20.014C15.0164 19.9085 14.9952 19.7963 15 19.6837L15.5 7.68375C15.5047 7.57119 15.5352 7.46052 15.5898 7.35806C15.6443 7.2556 15.7219 7.16336 15.8181 7.0866C15.9143 7.00984 16.0271 6.95007 16.1502 6.9107C16.2733 6.87133 16.4043 6.85313 16.5356 6.85714C16.6669 6.86115 16.7961 6.88729 16.9156 6.93407C17.0351 6.98085 17.1427 7.04736 17.2323 7.12979C17.3218 7.21221 17.3916 7.30895 17.4375 7.41448C17.4834 7.52001 17.5047 7.63226 17.5 7.74482L17 19.7448Z" fill="#87A0E2"/>
</svg>
